<svg xmlns="http://www.w3.org/2000/svg" viewBox="0 0 820 380" font-family="sans-serif" font-size="13">

  <!-- Background -->
  <rect width="820" height="380" fill="#f8f9fa" rx="8"/>

  <!-- Arrow marker -->
  <defs>
    <marker id="arrow" markerWidth="8" markerHeight="8" refX="6" refY="3" orient="auto">
      <path d="M0,0 L0,6 L8,3 z" fill="#666"/>
    </marker>
  </defs>

  <!-- Local Machine box -->
  <rect x="20" y="60" width="160" height="260" rx="8" fill="#fff" stroke="#4a90d9" stroke-width="2"/>
  <rect x="20" y="60" width="160" height="32" rx="8" fill="#4a90d9"/>
  <rect x="20" y="76" width="160" height="16" fill="#4a90d9"/>
  <text x="100" y="81" text-anchor="middle" fill="#fff" font-weight="bold" font-size="13">Local Machine</text>

  <!-- Scaler Client section -->
  <text x="100" y="115" text-anchor="middle" fill="#555" font-size="12">Scaler Client</text>
  <rect x="50" y="123" width="100" height="26" rx="4" fill="#e8f0fe" stroke="#4a90d9" stroke-width="1"/>
  <text x="100" y="141" text-anchor="middle" fill="#333" font-size="11">scaler</text>

  <!-- Divider -->
  <line x1="40" y1="168" x2="160" y2="168" stroke="#ddd" stroke-width="1"/>

  <!-- Browser section -->
  <text x="100" y="193" text-anchor="middle" fill="#555" font-size="12">Browser</text>
  <rect x="50" y="201" width="100" height="26" rx="4" fill="#e8f0fe" stroke="#4a90d9" stroke-width="1"/>
  <text x="100" y="219" text-anchor="middle" fill="#333" font-size="11">web browser</text>

  <!-- Arrow local (Scaler Client) → scheduler -->
  <line x1="182" y1="136" x2="278" y2="136" stroke="#666" stroke-width="1.5" marker-end="url(#arrow)"/>
  <text x="230" y="118" text-anchor="middle" fill="#555" font-size="10">TCP 6788/6789</text>
  <text x="230" y="129" text-anchor="middle" fill="#555" font-size="10">(public IP)</text>

  <!-- Arrow local (Browser) → Web GUI -->
  <line x1="182" y1="214" x2="278" y2="214" stroke="#666" stroke-width="1.5" marker-end="url(#arrow)"/>
  <text x="230" y="196" text-anchor="middle" fill="#555" font-size="10">TCP 50001</text>
  <text x="230" y="207" text-anchor="middle" fill="#555" font-size="10">(public IP)</text>

  <!-- Scheduler EC2 Instance box -->
  <rect x="280" y="20" width="240" height="320" rx="8" fill="#fff" stroke="#e67e22" stroke-width="2"/>
  <rect x="280" y="20" width="240" height="32" rx="8" fill="#e67e22"/>
  <rect x="280" y="36" width="240" height="16" fill="#e67e22"/>
  <text x="400" y="41" text-anchor="middle" fill="#fff" font-weight="bold" font-size="13">Scheduler EC2 Instance</text>

  <!-- Services inside scheduler box -->
  <rect x="300" y="68" width="200" height="36" rx="4" fill="#fef9e7" stroke="#e67e22" stroke-width="1"/>
  <text x="400" y="86" text-anchor="middle" fill="#333" font-size="11" font-weight="bold">Scheduler</text>
  <text x="400" y="99" text-anchor="middle" fill="#777" font-size="10">tcp://0.0.0.0:6788</text>

  <rect x="300" y="114" width="200" height="36" rx="4" fill="#fef9e7" stroke="#e67e22" stroke-width="1"/>
  <text x="400" y="132" text-anchor="middle" fill="#333" font-size="11" font-weight="bold">Object Storage Server</text>
  <text x="400" y="145" text-anchor="middle" fill="#777" font-size="10">tcp://0.0.0.0:6789</text>

  <rect x="300" y="160" width="200" height="36" rx="4" fill="#fef9e7" stroke="#e67e22" stroke-width="1"/>
  <text x="400" y="178" text-anchor="middle" fill="#333" font-size="11" font-weight="bold">ORB Worker Manager</text>
  <text x="400" y="191" text-anchor="middle" fill="#777" font-size="10">orb_aws_ec2</text>

  <rect x="300" y="206" width="200" height="36" rx="4" fill="#fef9e7" stroke="#e67e22" stroke-width="1"/>
  <text x="400" y="224" text-anchor="middle" fill="#333" font-size="11" font-weight="bold">Web GUI</text>
  <text x="400" y="237" text-anchor="middle" fill="#777" font-size="10">0.0.0.0:50001</text>

  <text x="400" y="310" text-anchor="middle" fill="#aaa" font-size="10">provisions workers via AWS API</text>

  <!-- Arrow scheduler → workers -->
  <line x1="522" y1="145" x2="598" y2="145" stroke="#666" stroke-width="1.5" marker-end="url(#arrow)"/>
  <text x="560" y="127" text-anchor="middle" fill="#555" font-size="10">TCP 6788/6789</text>
  <text x="560" y="138" text-anchor="middle" fill="#555" font-size="10">(private VPC IP)</text>

  <!-- Worker EC2 Instances (stacked) -->
  <rect x="602" y="48" width="185" height="60" rx="8" fill="#fff" stroke="#27ae60" stroke-width="2"/>
  <rect x="602" y="48" width="185" height="28" rx="8" fill="#27ae60"/>
  <rect x="602" y="62" width="185" height="14" fill="#27ae60"/>
  <text x="694" y="66" text-anchor="middle" fill="#fff" font-weight="bold" font-size="12">Worker EC2 Instance</text>
  <text x="694" y="96" text-anchor="middle" fill="#555" font-size="11">Scaler Worker Processes</text>

  <rect x="602" y="118" width="185" height="60" rx="8" fill="#fff" stroke="#27ae60" stroke-width="2"/>
  <rect x="602" y="118" width="185" height="28" rx="8" fill="#27ae60"/>
  <rect x="602" y="132" width="185" height="14" fill="#27ae60"/>
  <text x="694" y="136" text-anchor="middle" fill="#fff" font-weight="bold" font-size="12">Worker EC2 Instance</text>
  <text x="694" y="166" text-anchor="middle" fill="#555" font-size="11">Scaler Worker Processes</text>

  <rect x="602" y="188" width="185" height="60" rx="8" fill="#fff" stroke="#27ae60" stroke-width="2"/>
  <rect x="602" y="188" width="185" height="28" rx="8" fill="#27ae60"/>
  <rect x="602" y="202" width="185" height="14" fill="#27ae60"/>
  <text x="694" y="206" text-anchor="middle" fill="#fff" font-weight="bold" font-size="12">Worker EC2 Instance</text>
  <text x="694" y="236" text-anchor="middle" fill="#555" font-size="11">Scaler Worker Processes</text>

</svg>
